<svg preserveAspectRatio="none" overflow="visible" style="display: block;" width="362" height="55" viewBox="0 0 362 55" fill="none" xmlns="http://www.w3.org/2000/svg">
<g id="Vector">
<path d="M151.445 39.4541C151.307 43.8237 154.69 46.22 159.181 46.1272C162.047 46.0653 164.326 44.8517 166.198 42.5035L174.309 46.5363C172.368 49.8814 169.498 52.2192 165.97 53.5979C158.286 56.1213 150.561 55.4853 144.738 49.6476C142.106 47.0107 140.512 43.8547 139.955 40.2414C139.363 44.7967 137.401 48.52 134.091 51.4044C128.341 56.4101 118.585 56.3104 113.333 50.3215L113.292 54.0345L102.315 54.0276V0.0137519L113.433 0L113.447 24.8221C118.323 20.3218 125.615 19.7545 131.334 22.5565C136.231 25.2897 139.311 30.0822 139.951 35.7754C141.249 27.1015 148.936 20.6794 157.901 20.8684C160.654 20.9166 163.255 21.3635 165.74 22.4637C172.701 25.5406 175.303 32.0625 174.825 39.4541H151.445ZM163.961 33.2898C163.513 29.5149 160.588 27.9025 157.44 28.1088C154.477 28.1707 151.91 30.0512 151.731 33.3139L163.961 33.2898ZM128.313 37.9448C128.313 33.7436 124.906 30.34 120.701 30.34C116.496 30.34 113.089 33.7436 113.089 37.9448C113.089 42.146 116.496 45.5496 120.701 45.5496C124.906 45.5496 128.313 42.146 128.313 37.9448Z" fill="white"/>
<path d="M211.047 54.062L196.986 27.875L196.78 30.2816L190.031 30.2885L190.059 41.6647C190.059 42.8508 190.627 44.0369 191.429 44.7692C192.857 45.2161 194.116 44.8517 195.303 43.9681L198.091 52.9687C192.303 56.0354 183.569 56.0698 180.534 49.9742C179.515 47.9321 178.93 45.6699 178.927 43.3527L178.899 30.2919L174.253 30.2781V21.8036L178.906 21.7967V9.80507H190.042L190.035 21.7898L206.556 21.8139L214.42 39.1481L222.145 21.8345L229.822 21.807L237.562 39.1962L245.435 21.8036L258.247 21.8139L240.969 54.0207L233.425 54.0482L225.989 37.4016L218.594 54.0001L211.051 54.0689L211.047 54.062Z" fill="white"/>
<path d="M324.639 46.5672C320.619 53.6219 311.792 56.0526 304.16 54.5949C296.926 53.2162 290.877 46.9145 290.209 39.4541H266.946C266.774 42.1873 268.247 44.4185 270.776 45.4636C273.234 46.4813 275.928 46.2406 278.457 45.3364L281.806 42.5757L289.793 46.5672C287.635 50.1633 284.414 52.7659 280.381 53.9451C276.713 55.0177 272.903 55.3581 269.09 54.5502C263.701 53.4053 259.111 49.7508 256.795 44.7245C252.531 35.4763 257.865 24.7877 267.48 21.7279C271.678 20.3906 276.134 20.6243 280.199 22.058C286.066 24.1276 289.576 29.0405 290.309 35.3766C291.93 26.682 299.648 20.4971 308.592 20.8891C311.775 20.9475 314.79 21.6282 317.536 23.1994C323.475 26.5961 325.557 32.5644 325.162 39.4541H301.782C301.62 42.1907 303.086 44.4151 305.615 45.4636C308.014 46.4572 310.619 46.2372 313.128 45.4155L316.645 42.5723L324.639 46.5672ZM279.476 33.2898C278.998 29.5252 276.017 27.8613 272.848 28.1191C269.913 28.1844 267.401 30.0891 267.225 33.3139L279.479 33.2898H279.476ZM314.318 33.2898C313.84 29.5252 310.86 27.8613 307.691 28.1191C304.755 28.1844 302.243 30.0891 302.068 33.3139L314.322 33.2898H314.318Z" fill="white"/>
<path d="M35.073 29.5734C31.9105 29.2914 28.0873 31.8699 28.0632 35.1635L27.9187 54.0345H16.8104V21.7967L27.9049 21.8036L27.9703 25.2656C30.2587 23.1066 32.5609 21.446 35.572 21.0266C39.3573 20.4971 43.1151 21.446 46.3878 23.3541C49.6604 25.2622 51.2055 28.3735 51.4498 31.9868L51.4601 54.0345H40.3209V35.2219C39.9561 32.3994 38.2905 29.8622 35.0696 29.5734H35.073Z" fill="white"/>
<path d="M340.592 31.4264C339.377 32.5747 338.641 33.8639 338.483 35.4695V54.0345H327.361V21.8036H338.469L338.538 25.2106C340.716 23.2613 342.891 21.5423 345.837 21.0816C350.014 20.4284 354.385 21.5045 357.815 23.9489C360.562 25.9051 361.866 29.0405 362 32.3753V54.0345H350.878V35.7342C350.806 33.4583 349.746 31.2648 347.736 30.1819C345.365 28.903 342.557 29.5665 340.592 31.4299V31.4264Z" fill="white"/>
<path d="M11.9996 21.8001H0.880954V54.031H11.9996V21.8001Z" fill="white"/>
<path d="M76.5295 44.2947C80.5054 44.2947 83.7285 41.0747 83.7285 37.1025C83.7285 33.1304 80.5054 29.9103 76.5295 29.9103C72.5536 29.9103 69.3304 33.1304 69.3304 37.1025C69.3304 41.0747 72.5536 44.2947 76.5295 44.2947Z" fill="#EC460B"/>
<path d="M6.59339 15.0789C10.2348 15.0789 13.1868 12.1297 13.1868 8.49177C13.1868 4.85379 10.2348 1.90463 6.59339 1.90463C2.95196 1.90463 0 4.85379 0 8.49177C0 12.1297 2.95196 15.0789 6.59339 15.0789Z" fill="white"/>
</g>
</svg>
